<svg xmlns="http://www.w3.org/2000/svg" viewBox="0 0 900 540">
<defs><pattern id="grid" width="40" height="40" patternUnits="userSpaceOnUse"><path d="M 40 0 L 0 0 0 40" fill="none" stroke="#1e293b" stroke-width="0.5"/></pattern>
<marker id="ag" markerWidth="10" markerHeight="7" refX="9" refY="3.5" orient="auto"><polygon points="0 0, 10 3.5, 0 7" fill="#94a3b8"/></marker>
<marker id="ar" markerWidth="10" markerHeight="7" refX="9" refY="3.5" orient="auto"><polygon points="0 0, 10 3.5, 0 7" fill="#fb7185"/></marker>
<marker id="ae" markerWidth="10" markerHeight="7" refX="9" refY="3.5" orient="auto"><polygon points="0 0, 10 3.5, 0 7" fill="#34d399"/></marker></defs>
<rect width="900" height="540" fill="#020617"/>
<rect width="900" height="540" fill="url(#grid)"/>
<text x="450" y="28" fill="white" font-family="monospace" font-size="16" font-weight="bold" text-anchor="middle">Vaultwarden 自建密码管理器架构</text>
<rect x="60" y="50" width="160" height="55" rx="8" fill="#0f172a" stroke="#94a3b8" stroke-width="1.5"/>
<rect x="60" y="50" width="160" height="55" rx="8" fill="rgba(30,41,59,0.40)" stroke="#94a3b8" stroke-width="1.5"/>
<text x="140" y="70" fill="white" font-family="monospace" font-size="13" font-weight="bold" text-anchor="middle">用户</text>
<text x="140" y="88" fill="#94a3b8" font-family="monospace" font-size="10" text-anchor="middle">Bitwarden 客户端</text>
<line x1="220" y1="77" x2="290" y2="77" stroke="#94a3b8" stroke-width="1.5" marker-end="url(#ag)"/><rect x="300" y="50" width="200" height="55" rx="8" fill="#0f172a" stroke="#22d3ee" stroke-width="1.5"/>
<rect x="300" y="50" width="200" height="55" rx="8" fill="rgba(8,51,68,0.35)" stroke="#22d3ee" stroke-width="1.5"/>
<text x="400" y="70" fill="white" font-family="monospace" font-size="13" font-weight="bold" text-anchor="middle">Nginx 反向代理</text>
<text x="400" y="88" fill="#94a3b8" font-family="monospace" font-size="10" text-anchor="middle">HTTPS · Let's Encrypt</text>
<line x1="500" y1="77" x2="570" y2="77" stroke="#22d3ee" stroke-width="1.5" marker-end="url(#ac)"/><rect x="240" y="130" width="480" height="170" rx="12" fill="rgba(52,211,153,0.03)" stroke="#34d399" stroke-width="1" stroke-dasharray="6,3"/>
<text x="260" y="152" fill="white" font-family="monospace" font-size="12" font-weight="bold">Docker 容器</text><rect x="280" y="165" width="200" height="70" rx="8" fill="#0f172a" stroke="#34d399" stroke-width="1.5"/>
<rect x="280" y="165" width="200" height="70" rx="8" fill="rgba(6,78,59,0.30)" stroke="#34d399" stroke-width="1.5"/>
<text x="380" y="192" fill="white" font-family="monospace" font-size="13" font-weight="bold" text-anchor="middle">Vaultwarden</text>
<text x="380" y="210" fill="#94a3b8" font-family="monospace" font-size="10" text-anchor="middle">:8443 (Rust)</text>
<line x1="480" y1="200" x2="540" y2="200" stroke="#34d399" stroke-width="1.5" marker-end="url(#ae)"/><rect x="548" y="175" width="140" height="50" rx="8" fill="#0f172a" stroke="#fbbf24" stroke-width="1.5"/>
<rect x="548" y="175" width="140" height="50" rx="8" fill="rgba(120,53,15,0.25)" stroke="#fbbf24" stroke-width="1.5"/>
<text x="618" y="192" fill="white" font-family="monospace" font-size="13" font-weight="bold" text-anchor="middle">SQLite</text>
<text x="618" y="210" fill="#94a3b8" font-family="monospace" font-size="10" text-anchor="middle">加密数据库</text>
<rect x="280" y="250" width="200" height="35" rx="6" fill="#0f172a" stroke="#a78bfa" stroke-width="1.5"/>
<rect x="280" y="250" width="200" height="35" rx="6" fill="rgba(76,29,149,0.25)" stroke="#a78bfa" stroke-width="1.5"/>
<text x="380" y="260" fill="white" font-family="monospace" font-size="13" font-weight="bold" text-anchor="middle">SMTP 邮件通知</text>
<rect x="548" y="250" width="140" height="35" rx="6" fill="#0f172a" stroke="#fb7185" stroke-width="1.5"/>
<rect x="548" y="250" width="140" height="35" rx="6" fill="rgba(136,19,55,0.30)" stroke="#fb7185" stroke-width="1.5"/>
<text x="618" y="260" fill="white" font-family="monospace" font-size="13" font-weight="bold" text-anchor="middle">自动备份 Cron</text>
<line x1="618" y1="285" x2="618" y2="320" stroke="#fb7185" stroke-width="1.5" stroke-dasharray="5,3" marker-end="url(#ar)"/><rect x="530" y="325" width="180" height="45" rx="8" fill="#0f172a" stroke="#fb7185" stroke-width="1.5"/>
<rect x="530" y="325" width="180" height="45" rx="8" fill="rgba(136,19,55,0.30)" stroke="#fb7185" stroke-width="1.5"/>
<text x="620" y="340" fill="white" font-family="monospace" font-size="13" font-weight="bold" text-anchor="middle">R2 云备份</text>
<text x="620" y="358" fill="#94a3b8" font-family="monospace" font-size="10" text-anchor="middle">每日 3:00 自动同步</text>
<rect x="40" y="400" width="820" height="55" rx="10" fill="rgba(15,23,42,0.7)" stroke="#1e293b" stroke-width="1"/>
<rect x="70" y="415" width="18" height="12" rx="3" fill="rgba(30,41,59,0.40)" stroke="#94a3b8" stroke-width="1"/>
<text x="94" y="427" fill="white" font-family="monospace" font-size="10">用户</text>
<rect x="185" y="415" width="18" height="12" rx="3" fill="rgba(8,51,68,0.35)" stroke="#22d3ee" stroke-width="1"/>
<text x="209" y="427" fill="white" font-family="monospace" font-size="10">Nginx</text>
<rect x="456" y="415" width="18" height="12" rx="3" fill="rgba(6,78,59,0.30)" stroke="#34d399" stroke-width="1"/>
<text x="480" y="427" fill="white" font-family="monospace" font-size="10">Vaultwarden</text>
<rect x="454" y="415" width="18" height="12" rx="3" fill="rgba(120,53,15,0.25)" stroke="#fbbf24" stroke-width="1"/>
<text x="478" y="427" fill="white" font-family="monospace" font-size="10">SQLite</text>
<rect x="478" y="415" width="18" height="12" rx="3" fill="rgba(76,29,149,0.25)" stroke="#a78bfa" stroke-width="1"/>
<text x="502" y="427" fill="white" font-family="monospace" font-size="10">SMTP</text>
<rect x="450" y="415" width="18" height="12" rx="3" fill="rgba(136,19,55,0.30)" stroke="#fb7185" stroke-width="1"/>
<text x="474" y="427" fill="white" font-family="monospace" font-size="10">备份</text>
<text x="450" y="445" fill="#94a3b8" font-family="monospace" font-size="10" text-anchor="middle">核心原则：所有数据加密存储、HTTPS 传输、每日自动备份到 R2</text>

</svg>